<?xml version="1.0" encoding="UTF-8" standalone="no"?>
<svg
   xmlns:dc="http://purl.org/dc/elements/1.1/"
   xmlns:cc="http://creativecommons.org/ns#"
   xmlns:rdf="http://www.w3.org/1999/02/22-rdf-syntax-ns#"
   xmlns:svg="http://www.w3.org/2000/svg"
   xmlns="http://www.w3.org/2000/svg"
   xmlns:sodipodi="http://sodipodi.sourceforge.net/DTD/sodipodi-0.dtd"
   xmlns:inkscape="http://www.inkscape.org/namespaces/inkscape"
   width="19.197556"
   height="23.692432"
   viewBox="0 0 19.197556 23.692432"
   version="1.1"
   id="svg138"
   sodipodi:docname="Dexter-logo.svg"
   inkscape:version="1.0.1 (3bc2e813f5, 2020-09-07)">
  <metadata
     id="metadata142">
    <rdf:RDF>
      <cc:Work
         rdf:about="">
        <dc:format>image/svg+xml</dc:format>
        <dc:type
           rdf:resource="http://purl.org/dc/dcmitype/StillImage" />
        <dc:title>Logo/Dexter mobile</dc:title>
      </cc:Work>
    </rdf:RDF>
  </metadata>
  <sodipodi:namedview
     pagecolor="#ffffff"
     bordercolor="#666666"
     borderopacity="1"
     objecttolerance="10"
     gridtolerance="10"
     guidetolerance="10"
     inkscape:pageopacity="0"
     inkscape:pageshadow="2"
     inkscape:window-width="1920"
     inkscape:window-height="1021"
     id="namedview140"
     showgrid="false"
     inkscape:zoom="9.134772"
     inkscape:cx="29.921357"
     inkscape:cy="17.163747"
     inkscape:window-x="0"
     inkscape:window-y="0"
     inkscape:window-maximized="1"
     inkscape:current-layer="svg138" />
  <title
     id="title95">Logo/Dexter mobile</title>
  <defs
     id="defs102">
    <polygon
       id="path-1"
       points="15.058526,0.016801559 15.058526,16.214916 0,16.214916 0,0.016801559 " />
    <polygon
       id="path-3"
       points="11.520352,0.016801559 11.520352,16.214845 0.013133708,16.214845 0.013133708,0.016801559 " />
    <polygon
       id="path-5"
       points="12.99257,0.016801559 12.99257,16.214863 0.078838282,16.214863 0.078838282,0.016801559 " />
    <polygon
       id="path-7"
       points="11.54253,0.016801559 11.54253,16.214845 0.035311479,16.214845 0.035311479,0.016801559 " />
    <polygon
       id="path-9"
       points="13.124863,0.016801559 13.124863,16.214827 0.026465593,16.214827 0.026465593,0.016801559 " />
  </defs>
  <path
     d="m 18.145417,23.692432 c 0.581018,0 1.052138,-0.467226 1.052138,-1.043841 v -1.230447 c 0,-0.576436 -0.47112,-1.043662 -1.052138,-1.043662 H 1.052138 C 0.47112,20.374482 0,20.841708 0,21.418144 v 1.230447 c 0,0.576615 0.47112,1.043841 1.052138,1.043841 z"
     id="Fill-16"
     fill="#0cca4a"
     style="fill-rule:evenodd;stroke:none;stroke-width:1" />
  <path
     d="M 17.456284,12.990912 12.434668,8.0090707 17.456284,3.027051 c 0.362844,-0.3599823 0.362844,-0.9433896 0,-1.303372 L 15.991038,0.26998675 c -0.362663,-0.35998233 -0.950888,-0.35998233 -1.313731,0 L 9.65569,5.2520064 4.634074,0.26998675 c -0.362844,-0.35998233 -0.950888,-0.35998233 -1.313732,0 L 1.855096,1.723679 c -0.362663,0.3599824 -0.362663,0.9433897 0,1.303372 L 6.876713,8.0090707 1.855096,12.990912 c -0.362663,0.359982 -0.362663,0.943389 0,1.303372 l 1.465246,1.453692 c 0.362844,0.359803 0.951068,0.359803 1.313732,0 l 5.021616,-4.981841 5.021617,4.98202 c 0.362843,0.359803 0.951068,0.359803 1.313731,0 l 1.465246,-1.453693 c 0.362844,-0.359982 0.362844,-0.943568 0,-1.30355"
     id="Fill-18"
     fill="#000000"
     style="fill-rule:evenodd;stroke:none;stroke-width:1" />
</svg>
